<?xml version="1.0" encoding="UTF-8"?>
<svg width="453px" height="125px" viewBox="0 0 453 125" version="1.1" xmlns="http://www.w3.org/2000/svg" xmlns:xlink="http://www.w3.org/1999/xlink">
    <!-- Generator: Sketch 55 (78076) - https://sketchapp.com -->
    <title>Artboard Copy</title>
    <desc>Created with Sketch.</desc>
    <defs>
        <radialGradient cx="36.2507156%" cy="27.4181659%" fx="36.2507156%" fy="27.4181659%" r="77.0742045%" gradientTransform="translate(0.362507,0.274182),scale(1.000000,0.999721),rotate(143.806919),translate(-0.362507,-0.274182)" id="radialGradient-1">
            <stop stop-color="#FFFFFF" offset="0%"></stop>
            <stop stop-color="#FF0000" offset="100%"></stop>
        </radialGradient>
    </defs>
    <g id="Page-2" stroke="none" stroke-width="1" fill="none" fill-rule="evenodd">
        <g id="Artboard-Copy" transform="translate(-42.000000, -42.000000)">
            <path id="path3003-copy" d="M446.747089,107.97347 L60,107.97347 L60,105.691846 L446.747089,105.691846 L446.747089,99.1286002 L461.747089,106.832658 L446.747089,114.536716 L446.747089,107.97347 Z" fill="#000000" fill-rule="nonzero"></path>
            <path d="M212.655372,106.832658 C212.657148,113.203061 209.259599,119.090316 203.742964,122.27603 C198.22633,125.461745 191.429043,125.461745 185.912408,122.27603 C180.395773,119.090316 176.998224,113.203061 177.000001,106.832658 C176.998224,100.462255 180.395773,94.5750001 185.912408,91.3892858 C191.429043,88.2035714 198.22633,88.2035714 203.742964,91.3892858 C209.259599,94.5750001 212.657148,100.462255 212.655372,106.832658 Z" id="path4428-copy" stroke="#000000" stroke-width="2.7731958" fill="url(#radialGradient-1)" fill-rule="nonzero"></path>
            <path d="M326,93.448138 L326,120.217178" id="path6773-1" stroke="#000000" stroke-width="2"></path>
        </g>
    </g>
</svg>